<svg width="41" height="41" viewBox="0 0 41 41" fill="none" xmlns="http://www.w3.org/2000/svg">
<rect x="0.869629" y="0.608643" width="40" height="40" rx="20" fill="#A3CD39"/>
<path d="M25.0194 15.6033C24.8219 15.6033 24.6612 15.764 24.6612 15.9615C24.6612 16.159 24.8219 16.3197 25.0194 16.3197C25.2169 16.3197 25.3776 16.159 25.3776 15.9615C25.3776 15.764 25.2169 15.6033 25.0194 15.6033ZM20.7305 17.0748C18.9795 17.0748 17.5549 18.4994 17.5549 20.2504C17.5549 22.0014 18.9795 23.426 20.7305 23.426C22.4815 23.426 23.9061 22.0014 23.9061 20.2504C23.9061 18.4994 22.4815 17.0748 20.7305 17.0748Z" fill="#FFFDF3"/>
<path d="M25.1001 10.5186H16.2657C13.3096 10.5186 10.9045 12.9236 10.9045 15.8798V24.7141C10.9045 27.6703 13.3096 30.0753 16.2657 30.0753H25.1001C28.0563 30.0753 30.4613 27.6702 30.4613 24.7141V15.8798C30.4613 12.9236 28.0563 10.5186 25.1001 10.5186ZM20.6829 25.6609C17.7251 25.6609 15.3189 23.2547 15.3189 20.2969C15.3189 17.3391 17.7252 14.9329 20.6829 14.9329C23.6406 14.9329 26.0469 17.3392 26.0469 20.2969C26.0469 23.2546 23.6406 25.6609 20.6829 25.6609ZM26.3677 16.2418C25.4691 16.2418 24.738 15.5107 24.738 14.6121C24.738 13.7135 25.4691 12.9824 26.3677 12.9824C27.2664 12.9824 27.9974 13.7134 27.9974 14.6121C27.9974 15.5107 27.2664 16.2418 26.3677 16.2418Z" fill="#FFFDF3"/>
</svg>
