<svg width="41" height="41" viewBox="0 0 41 41" fill="none" xmlns="http://www.w3.org/2000/svg">
<rect x="0.478271" y="0.608643" width="40" height="40" rx="20" fill="#F8128E"/>
<path d="M20.0784 10.6086H20.0736C14.7815 10.6086 10.478 14.9133 10.478 20.2066C10.478 22.3062 11.1547 24.2522 12.3052 25.8322L11.1091 29.3979L14.7983 28.2185C16.316 29.2239 18.1264 29.8046 20.0784 29.8046C25.3705 29.8046 29.674 25.4987 29.674 20.2066C29.674 14.9145 25.3705 10.6086 20.0784 10.6086ZM25.6632 24.1622C25.4317 24.8161 24.5127 25.3583 23.7796 25.5167C23.2781 25.6235 22.6231 25.7087 20.4179 24.7945C17.5973 23.6259 15.7809 20.7597 15.6393 20.5737C15.5038 20.3878 14.4996 19.0561 14.4996 17.6788C14.4996 16.3014 15.199 15.6308 15.481 15.3428C15.7125 15.1065 16.0952 14.9985 16.4624 14.9985C16.5811 14.9985 16.6879 15.0045 16.7839 15.0093C17.0658 15.0213 17.2074 15.0381 17.3934 15.4832C17.6249 16.0411 18.1888 17.4184 18.256 17.56C18.3244 17.7016 18.3928 17.8935 18.2968 18.0795C18.2068 18.2714 18.1276 18.3566 17.986 18.5198C17.8445 18.6829 17.7101 18.8077 17.5685 18.9829C17.439 19.1352 17.2926 19.2984 17.4558 19.5804C17.6189 19.8563 18.1828 20.7765 19.013 21.5155C20.0844 22.4693 20.953 22.7741 21.2638 22.9037C21.4953 22.9996 21.7713 22.9768 21.9404 22.7969C22.1552 22.5653 22.4203 22.1814 22.6903 21.8035C22.8822 21.5323 23.1246 21.4988 23.3789 21.5947C23.6381 21.6847 25.0094 22.3626 25.2913 22.5029C25.5733 22.6445 25.7592 22.7117 25.8276 22.8305C25.8948 22.9492 25.8948 23.5071 25.6632 24.1622Z" fill="white"/>
</svg>
